<?xml version="1.0" standalone="no"?>
<!DOCTYPE svg PUBLIC "-//W3C//DTD SVG 20010904//EN"
 "http://www.w3.org/TR/2001/REC-SVG-20010904/DTD/svg10.dtd">
<svg version="1.0" xmlns="http://www.w3.org/2000/svg"
 width="500.000000pt" height="500.000000pt" viewBox="0 0 500.000000 500.000000"
 preserveAspectRatio="xMidYMid meet">
<metadata>
Created by potrace 1.14, written by Peter Selinger 2001-2017
</metadata>
<g transform="translate(0.000000,500.000000) scale(0.100000,-0.100000)"
fill="#000000" stroke="none">
<path d="M3136 3153 c-4 -5 -534 -8 -1176 -9 -1124 0 -1170 -1 -1190 -19 -11
-10 -20 -23 -19 -29 0 -6 3 -6 6 2 10 24 20 11 19 -25 l-1 -37 1155 3 c651 1
1159 6 1165 11 15 12 58 100 53 106 -3 2 -8 1 -12 -3z"/>
<path d="M3257 3130 c-31 -38 -58 -82 -54 -86 2 -2 250 -5 550 -7 576 -2 556
-4 547 38 -1 6 -3 23 -3 39 l-2 30 -513 0 c-445 1 -515 -1 -525 -14z"/>
<path d="M855 2937 c-60 -28 -77 -57 -79 -135 -4 -115 6 -136 109 -237 111
-108 122 -126 120 -188 -3 -60 -22 -81 -71 -80 -46 1 -54 14 -54 88 l0 60 -55
-3 -56 -4 2 -64 c3 -76 29 -129 77 -157 38 -22 123 -29 162 -13 36 14 78 55
88 85 10 32 9 157 -2 191 -5 14 -54 70 -110 126 l-102 100 2 55 c1 30 2 59 3
65 0 6 14 17 31 24 25 10 34 10 55 -4 14 -9 25 -26 26 -39 1 -12 2 -35 3 -52
1 -29 2 -30 51 -30 l50 0 0 45 c1 104 -30 152 -116 179 -46 15 -84 11 -134
-12z"/>
<path d="M2365 2939 c-36 -13 -56 -28 -70 -51 -10 -18 -19 -35 -18 -38 1 -3
-2 -9 -7 -15 -4 -5 -6 -23 -4 -40 3 -16 5 -131 5 -255 0 -214 1 -227 22 -265
31 -54 84 -83 150 -80 63 3 95 15 123 46 42 47 44 60 44 316 1 160 4 242 10
232 5 -9 12 -41 15 -70 7 -75 11 -106 21 -169 4 -30 7 -58 6 -62 -1 -6 7 -53
23 -128 11 -53 19 -96 20 -110 1 -8 2 -24 3 -35 2 -18 9 -21 51 -20 27 0 52 3
55 6 3 3 8 28 11 55 3 27 8 63 11 79 3 17 6 45 6 63 0 17 3 32 7 32 3 0 6 12
7 28 1 23 10 108 13 122 1 2 6 -1 12 -7 6 -6 13 -36 15 -67 2 -30 6 -70 9 -88
6 -32 10 -61 20 -140 10 -74 18 -84 68 -83 25 0 48 3 51 5 4 5 24 121 41 240
4 25 13 81 20 125 13 75 21 125 30 192 2 15 6 44 10 63 3 19 8 52 10 72 2 21
7 42 10 48 5 8 -12 10 -52 8 -50 -3 -58 -6 -59 -23 0 -11 -4 -40 -9 -65 -4
-25 -9 -61 -11 -80 -2 -19 -6 -51 -9 -70 -3 -19 -7 -53 -10 -75 -2 -22 -8 -58
-13 -80 -4 -22 -8 -60 -6 -84 1 -34 -1 -40 -8 -27 -6 10 -8 33 -6 52 2 19 1
34 -3 34 -4 0 -8 8 -7 18 0 18 -10 137 -12 137 -3 0 -11 45 -15 90 -2 28 -9
78 -16 113 l-11 62 -38 0 c-22 0 -41 -4 -44 -9 -3 -5 -8 -39 -12 -76 -3 -37
-9 -78 -14 -90 -5 -13 -7 -25 -4 -28 4 -4 -17 -161 -30 -226 -7 -32 -17 -41
-13 -11 2 13 -2 35 -9 48 -7 13 -11 34 -8 45 2 12 -1 49 -6 83 -6 34 -13 86
-16 116 -3 29 -8 73 -12 98 l-7 45 -58 3 c-56 3 -58 2 -47 -17 6 -12 9 -21 6
-21 -3 0 1 -20 9 -45 7 -26 9 -47 4 -51 -5 -3 -9 6 -9 20 0 14 -4 26 -10 26
-5 0 -10 6 -10 13 0 19 -39 53 -75 67 -49 19 -97 19 -150 -1z m115 -97 c22
-18 22 -21 21 -268 -2 -272 -3 -275 -60 -276 -64 -2 -65 5 -66 275 -1 238 0
242 22 265 27 27 53 28 83 4z m402 -217 c3 -14 1 -28 -3 -31 -5 -3 -9 9 -9 25
0 38 6 40 12 6z"/>
<path d="M3364 2946 c-52 -19 -83 -45 -92 -79 -5 -17 -10 -148 -11 -289 -1
-294 4 -321 67 -359 44 -26 142 -33 182 -13 38 20 67 54 77 94 4 19 8 153 8
297 0 248 -1 263 -21 290 -41 56 -139 84 -210 59z m109 -104 c13 -15 16 -54
18 -266 2 -263 0 -271 -46 -277 -11 -2 -32 0 -47 4 l-28 7 -1 243 c-1 133 -1
249 0 257 3 22 40 50 66 50 12 0 29 -8 38 -18z"/>
<path d="M3930 2953 l-55 -4 0 -234 1 -234 -18 67 c-10 37 -20 76 -22 87 -3
11 -16 53 -30 94 -14 40 -23 77 -20 82 3 5 1 9 -4 9 -9 0 -35 85 -37 115 0 6
-27 11 -60 13 l-60 3 -2 -379 -1 -378 51 1 c42 1 51 4 53 20 6 38 4 440 -2
468 -4 17 -2 27 5 27 6 0 11 -10 11 -22 0 -13 7 -45 16 -73 9 -27 20 -66 24
-85 5 -19 18 -66 30 -105 11 -38 23 -81 26 -95 2 -14 7 -32 11 -40 3 -8 7 -22
9 -31 12 -57 20 -65 70 -64 l49 0 1 367 c1 202 4 374 7 383 4 8 5 14 4 13 -1
-1 -27 -3 -57 -5z"/>
<path d="M4152 2953 l-142 -4 2 -375 3 -376 138 -2 c153 -3 152 -3 152 64 0
39 6 37 -141 39 l-51 1 1 115 c0 70 5 115 11 116 5 0 25 2 44 4 19 2 42 0 51
-5 28 -15 35 2 29 65 -3 33 -6 54 -7 47 -2 -9 -19 -12 -64 -10 l-63 3 -1 102
c-1 66 3 103 10 106 6 2 50 3 98 2 l88 -1 -6 35 c-3 20 -5 46 -5 59 0 12 0 21
-2 20 -1 -1 -66 -4 -145 -5z"/>
<path d="M1140 2573 l5 -377 43 -2 c23 0 45 3 48 8 3 5 6 80 6 166 0 105 4
159 12 164 6 4 36 8 66 8 l55 0 0 -170 c0 -94 2 -171 5 -171 3 -1 26 -2 51 -3
l46 -2 -1 375 -1 376 -50 0 -50 0 -1 -145 c-1 -80 -2 -151 -3 -157 -1 -9 -21
-13 -65 -13 l-64 0 0 148 c0 81 -1 153 -1 160 -1 8 -19 12 -53 12 l-53 0 5
-377z"/>
<path d="M1614 2875 c-9 -38 -18 -88 -20 -110 -2 -22 -7 -51 -10 -65 -11 -38
-11 -39 -24 -125 -6 -44 -15 -96 -20 -115 -9 -36 -15 -70 -30 -172 -5 -32 -11
-61 -14 -67 -10 -15 17 -28 54 -26 47 3 50 4 48 13 -1 4 2 32 6 62 4 30 8 65
9 78 1 22 4 23 76 20 66 -3 75 -5 76 -23 1 -11 5 -38 10 -60 5 -22 9 -51 10
-65 1 -23 5 -25 52 -26 49 -1 51 0 55 27 3 16 1 30 -3 31 -7 3 -17 55 -35 173
-3 17 -7 37 -10 45 -3 8 -8 33 -10 55 -3 22 -19 108 -35 190 -27 142 -36 195
-38 221 -1 8 -24 11 -66 10 l-65 -1 -16 -70z m85 -113 c-2 -15 -1 -32 2 -37 3
-6 6 -26 8 -45 1 -19 6 -51 11 -70 5 -19 10 -59 12 -89 l3 -54 -48 -2 -48 -2
6 51 c4 28 9 54 11 57 2 4 6 24 9 45 3 22 10 63 15 92 5 29 9 56 9 60 -2 13 1
22 7 22 3 0 4 -12 3 -28z"/>
<path d="M1907 2594 c1 -198 2 -368 2 -380 1 -20 6 -21 104 -18 141 3 188 25
220 104 11 27 14 92 13 285 -2 243 -2 252 -25 288 -35 58 -69 70 -201 75
l-115 4 2 -358z m214 239 c11 -13 14 -69 15 -260 0 -235 0 -245 -20 -259 -11
-8 -40 -14 -63 -14 l-43 0 -1 253 c0 138 -2 262 -5 275 -4 21 0 22 50 22 38 0
58 -5 67 -17z"/>
<path d="M4364 2933 c-14 -23 -8 -65 11 -79 24 -18 64 -4 80 26 13 25 12 29
-6 49 -24 25 -70 28 -85 4z m74 -28 c-3 -3 -9 2 -12 12 -6 14 -5 15 5 6 7 -7
10 -15 7 -18z"/>
<path d="M3078 2110 c-23 -7 -385 -8 -2093 -10 l-210 0 0 -50 0 -50 75 -1 c41
-1 111 0 155 0 80 2 1085 4 1560 4 138 0 307 0 378 1 l127 1 25 52 c13 29 21
54 17 56 -4 2 -19 1 -34 -3z"/>
<path d="M3470 2102 l-235 -3 -22 -34 c-13 -19 -23 -40 -23 -47 0 -10 116 -13
558 -14 l557 -1 0 48 0 49 -200 1 c-110 0 -245 1 -300 2 -55 1 -206 1 -335 -1z"/>
<path d="M2487 1924 c-41 -22 -92 -80 -104 -118 -8 -26 -6 -41 13 -82 13 -27
23 -46 24 -42 0 3 13 -7 30 -22 31 -29 82 -42 115 -30 28 11 95 78 106 107 9
24 4 76 -9 98 -30 51 -100 106 -134 105 -7 -1 -26 -8 -41 -16z m81 -90 c29
-20 29 -70 0 -101 -26 -28 -45 -29 -77 -4 -17 13 -24 28 -23 51 2 60 52 88
100 54z"/>
<path d="M2125 1819 c-22 -4 -64 -8 -93 -8 -45 -1 -54 -4 -61 -23 -14 -39 -4
-46 72 -46 40 0 91 -3 114 -7 65 -10 83 10 75 83 -2 13 -45 14 -107 1z"/>
<path d="M2829 1811 c0 -9 -3 -28 -5 -42 l-4 -26 79 1 c44 1 82 4 85 7 8 8
-17 69 -29 70 -112 8 -125 7 -126 -10z"/>
</g>
</svg>
